<svg width="36" height="36" viewBox="0 0 36 36" fill="none" xmlns="http://www.w3.org/2000/svg">
<path fill-rule="evenodd" clip-rule="evenodd" d="M18 0C8.05887 0 0 8.05888 0 18C0 27.9411 8.05887 36 18 36C19.4839 36 20.9259 35.8204 22.3054 35.4818C25.3331 35.0488 28.4047 35.0003 31.4469 35.3383L32.7277 35.4807C33.3032 35.5446 33.7618 35.0079 33.6088 34.4495L32.1509 29.1255C34.5617 26.0634 36 22.1997 36 18C36 8.05888 27.9411 0 18 0Z" fill="#00F0A0"/>
<path d="M23.8151 24.6266C19.3194 28.3454 13.5514 30.58 7.2612 30.58C5.80711 30.58 4.381 30.4606 2.99197 30.2309C6.24819 28.8948 9.20817 26.9849 11.746 24.6266H23.8151Z" fill="#00F0A0" stroke="black" stroke-linejoin="round"/>
<path fill-rule="evenodd" clip-rule="evenodd" d="M13.5168 19.1468C11.8317 21.1153 9.7546 22.7357 7.42999 23.883C6.84043 24.1741 6.23488 24.4345 5.61569 24.6626C8.66472 26.3448 12.1632 27.3122 15.8852 27.3391C15.9046 27.3395 15.924 27.3396 15.9433 27.3397C15.9498 27.3397 15.9562 27.3398 15.9626 27.3398C15.9906 27.34 16.0186 27.34 16.0466 27.34C16.0746 27.34 16.1026 27.34 16.1306 27.3398C18.7049 27.3227 21.0942 26.5254 23.0735 25.1726C24.4614 24.2239 25.6477 23.002 26.555 21.5843L24.9657 22.93L20.7897 22.698L13.5168 19.1468Z" fill="#00F0A0"/>
<path fill-rule="evenodd" clip-rule="evenodd" d="M26.1531 22.1744L24.8497 23.278L20.6737 23.046L13.2691 19.4304C14.66 17.8686 15.8001 16.0759 16.6133 14.1183C16.6474 14.036 16.681 13.9535 16.7141 13.8704C17.961 10.9475 20.861 8.89877 24.2397 8.89877C25.3196 8.89877 26.3506 9.10813 27.2944 9.48851C28.4752 9.96412 29.5194 10.7074 30.3522 11.6432C29.2526 12.2853 28.5139 13.4779 28.5139 14.8431V14.8727C28.5139 17.5996 27.6384 20.1221 26.1531 22.1744Z" fill="white"/>
<path d="M30.3522 11.6432C29.2527 12.2853 28.5139 13.4779 28.5139 14.8431V14.8727C28.5139 19.1517 26.3581 22.9274 23.0735 25.1726C21.0942 26.5254 18.7049 27.3227 16.1306 27.3398C16.1026 27.34 16.0746 27.34 16.0466 27.34C16.0186 27.34 15.9906 27.34 15.9626 27.3398C15.9368 27.3396 15.911 27.3396 15.8852 27.3391C12.1632 27.3122 8.66473 26.3448 5.61569 24.6626C6.23488 24.4345 6.84043 24.1741 7.42999 23.883C11.5188 21.8651 14.8417 18.3832 16.6133 14.1183C16.6474 14.036 16.681 13.9535 16.7141 13.8704C17.961 10.9475 20.861 8.89877 24.2398 8.89877C25.3196 8.89877 26.3506 9.10813 27.2944 9.48851C28.4752 9.96412 29.5194 10.7074 30.3522 11.6432Z" stroke="black" stroke-linecap="round" stroke-linejoin="round"/>
<path d="M20.2822 22.9826L5.34152 15.2602C3.94349 14.5376 3.65527 12.6623 4.77178 11.5532L4.85816 11.4674C5.09337 11.2338 5.43535 11.1434 5.7553 11.2302L19.2527 14.8947" fill="white"/>
<path d="M20.2822 22.9826L5.34152 15.2602C3.94349 14.5376 3.65527 12.6623 4.77178 11.5532L4.85816 11.4674C5.09337 11.2338 5.43535 11.1434 5.7553 11.2302L19.2527 14.8947" stroke="black" stroke-linecap="round"/>
<path d="M26.8841 21.04C25.5707 23.3468 22.6565 24.2192 20.2823 22.9826C17.8521 21.7168 16.9079 18.7207 18.1737 16.2904C18.4556 15.7492 18.8233 15.2818 19.2514 14.896C19.2518 14.8956 19.2524 14.8952 19.2527 14.8947" stroke="black" stroke-linecap="round"/>
<ellipse cx="26.252" cy="12.03" rx="0.812001" ry="0.812002" fill="black"/>
</svg>
